<?xml version="1.0" encoding="utf-8"?>
<!-- Generator: Adobe Illustrator 23.0.3, SVG Export Plug-In . SVG Version: 6.00 Build 0)  -->
<svg version="1.1" id="Layer_1" xmlns="http://www.w3.org/2000/svg" xmlns:xlink="http://www.w3.org/1999/xlink" x="0px" y="0px"
	 viewBox="0 0 120 120" style="enable-background:new 0 0 120 120;" xml:space="preserve">
<style type="text/css">
	.st0{clip-path:url(#SVGID_2_);}
	.st1{fill:#141414;}
</style>
<g>
	<defs>
		<rect id="SVGID_1_" x="0.9" y="13.7" width="118.3" height="91.6"/>
	</defs>
	<clipPath id="SVGID_2_">
		<use xlink:href="#SVGID_1_"  style="overflow:visible;"/>
	</clipPath>
	<g class="st0">
		<path class="st1" d="M101,21.9c-7.5-3.5-15.6-6-24.1-7.5c-0.2,0-0.3,0-0.4,0.2c-1,1.8-2.2,4.3-3,6.2c-9.1-1.4-18.1-1.4-27,0
			c-0.8-1.9-2-4.3-3-6.2c-0.1-0.1-0.2-0.2-0.4-0.2c-8.4,1.5-16.5,4-24.1,7.5c-0.1,0-0.1,0.1-0.2,0.1C3.5,44.9-0.7,67.2,1.4,89.3
			c0,0.1,0.1,0.2,0.2,0.3C11.6,97,21.4,101.5,31,104.5c0.2,0,0.3,0,0.4-0.1c2.3-3.1,4.3-6.4,6-9.8c0.1-0.2,0-0.4-0.2-0.5
			c-3.2-1.2-6.3-2.7-9.2-4.4c-0.2-0.1-0.3-0.5,0-0.6c0.6-0.5,1.2-0.9,1.8-1.4c0.1-0.1,0.3-0.1,0.4-0.1c19.4,8.8,40.3,8.8,59.4,0
			c0.1-0.1,0.3,0,0.4,0c0.6,0.5,1.2,1,1.8,1.4c0.2,0.2,0.2,0.5,0,0.6c-2.9,1.7-6,3.2-9.2,4.4c-0.2,0.1-0.3,0.3-0.2,0.5
			c1.8,3.4,3.8,6.7,6,9.8c0.1,0.1,0.3,0.2,0.4,0.1c9.7-3,19.5-7.5,29.6-14.9c0.1-0.1,0.1-0.2,0.2-0.3c2.5-25.5-4.1-47.7-17.5-67.3
			C101.1,21.9,101,21.9,101,21.9z M40.4,75.9c-5.8,0-10.6-5.3-10.6-11.9c0-6.6,4.7-11.9,10.6-11.9c6,0,10.7,5.4,10.6,11.9
			C51,70.5,46.3,75.9,40.4,75.9z M79.7,75.9c-5.8,0-10.6-5.3-10.6-11.9c0-6.6,4.7-11.9,10.6-11.9c6,0,10.7,5.4,10.6,11.9
			C90.3,70.5,85.7,75.9,79.7,75.9z"/>
	</g>
</g>
</svg>
