<?xml version="1.0" encoding="utf-8"?>
<!-- Generator: Adobe Illustrator 23.0.3, SVG Export Plug-In . SVG Version: 6.00 Build 0)  -->
<svg version="1.1" id="Layer_1" xmlns="http://www.w3.org/2000/svg" xmlns:xlink="http://www.w3.org/1999/xlink" x="0px" y="0px"
	 viewBox="0 0 120 120" style="enable-background:new 0 0 120 120;" xml:space="preserve">
<style type="text/css">
	.st0{fill-rule:evenodd;clip-rule:evenodd;fill:#141414;}
	.st1{fill:#141414;}
</style>
<g>
	<path class="st0" d="M60,2.1C27.2,2.1,0.7,28.7,0.7,61.5c0,26.2,17,48.5,40.6,56.3c3,0.5,4.1-1.3,4.1-2.9c0-1.4-0.1-6.1-0.1-11
		c-16.5,3.6-20-7-20-7c-2.7-6.9-6.6-8.7-6.6-8.7c-5.4-3.7,0.4-3.6,0.4-3.6c6,0.4,9.1,6.1,9.1,6.1c5.3,9.1,13.9,6.4,17.3,4.9
		c0.5-3.8,2.1-6.5,3.8-7.9c-13.2-1.5-27-6.6-27-29.3c0-6.5,2.3-11.8,6.1-15.9C27.8,41,25.8,35,29,26.8c0,0,5-1.6,16.3,6.1
		c4.7-1.3,9.8-2,14.9-2c5,0,10.1,0.7,14.9,2c11.3-7.7,16.3-6.1,16.3-6.1C94.6,35,92.6,41,92,42.5c3.8,4.2,6.1,9.5,6.1,15.9
		c0,22.8-13.9,27.8-27.1,29.3c2.1,1.8,4,5.5,4,11c0,7.9-0.1,14.3-0.1,16.3c0,1.6,1.1,3.4,4.1,2.8c23.6-7.9,40.5-30.1,40.5-56.3
		C119.3,28.7,92.8,2.1,60,2.1z"/>
	<path class="st1" d="M23.1,87.3c-0.1,0.3-0.6,0.4-1,0.2c-0.4-0.2-0.7-0.6-0.5-0.9c0.1-0.3,0.6-0.4,1-0.2C23,86.6,23.3,87,23.1,87.3
		L23.1,87.3z"/>
	<path class="st1" d="M25.5,90c-0.3,0.3-0.8,0.1-1.2-0.3c-0.4-0.4-0.5-1-0.2-1.2c0.3-0.3,0.8-0.1,1.2,0.3
		C25.8,89.2,25.8,89.7,25.5,90L25.5,90z"/>
	<path class="st1" d="M27.9,93.4c-0.4,0.3-1,0-1.3-0.5c-0.4-0.5-0.4-1.2,0-1.4c0.4-0.3,1,0,1.3,0.5C28.2,92.5,28.2,93.2,27.9,93.4
		L27.9,93.4z"/>
	<path class="st1" d="M31.1,96.7c-0.3,0.4-1,0.3-1.5-0.2C29,96,28.9,95.3,29.2,95c0.3-0.4,1-0.3,1.5,0.2
		C31.3,95.7,31.4,96.4,31.1,96.7L31.1,96.7z"/>
	<path class="st1" d="M35.5,98.6c-0.1,0.5-0.8,0.7-1.5,0.5s-1.1-0.7-1-1.2s0.8-0.7,1.5-0.5S35.6,98.2,35.5,98.6L35.5,98.6z"/>
	<path class="st1" d="M40.4,99c0,0.5-0.6,0.9-1.3,0.9s-1.3-0.4-1.3-0.9s0.6-0.9,1.3-0.9C39.8,98.1,40.4,98.5,40.4,99L40.4,99z"/>
	<path class="st1" d="M44.9,98.2c0.1,0.5-0.4,1-1.1,1.1c-0.7,0.1-1.3-0.2-1.4-0.6c-0.1-0.5,0.4-1,1.1-1.1
		C44.2,97.5,44.8,97.7,44.9,98.2L44.9,98.2z"/>
</g>
</svg>
